<svg height="512" width="512" xmlns="http://www.w3.org/2000/svg"><path d="M388.7 1a107.7 107.7 0 00-49.5 203c1.7 1 2.6 2.8 2.4 4.7-1.1 7.3-4.7 24.6-14.9 35-2.4 2.6-.1 6.8 3.3 6.2 17.7-3.3 44.5-11.4 54.4-31.3a4.6 4.6 0 014-2.6h.1a107.5 107.5 0 00.2-215z" fill="#c1e9af"/><path d="M496 108.5C496 167.9 448 216 388.5 216c-1.8 0-3.4 1-4.1 2.6-10 19.8-36.7 28-54.4 31.3-3.4.6-5.7-3.6-3.3-6.1a54 54 0 0011.8-21.7c13-4.9 25.7-12.7 31.9-25a4.6 4.6 0 014.1-2.7 107.5 107.5 0 0096.7-154.7 107 107 0 0124.8 68.8z" fill="#ade194"/><path d="M207 388H94a49 49 0 01-48.9-49V153.5c0-56.7 46-102.7 102.7-102.7h5.5c56.7 0 102.7 46 102.7 102.7V339a49 49 0 01-49 49z" fill="#596c76"/><path d="M256 156.2v181.5a50.2 50.2 0 01-50.2 50.3h-20.5a50.2 50.2 0 0050.2-50.3V156.2a105.1 105.1 0 00-95.2-104.9 105 105 0 01115.7 105z" fill="#465a61"/><path d="M233.6 179.5V227a83 83 0 11-166.1 0v-68.6l85-17.1z" fill="#ffcebf"/><path d="M233.6 179.5V227a83 83 0 01-92.4 82.6c41.6-4.8 74-41.9 74-87v-43.6z" fill="#ffb09e"/><path d="M227 159.9l-12.8-22.5h-141l-10.4 22.5-3.8 19.6h8.5c53.4 3.1 83-29.6 83-29.6s29.7 32.7 83.1 29.6z" fill="#596c76"/><path d="M67.5 229.9h-11c-8.6 0-15.6-7-15.6-15.6v-1c0-8.7 7-15.7 15.6-15.7h11zM233.6 229.9h11c8.6 0 15.6-7 15.6-15.6v-1c0-8.7-7-15.7-15.6-15.7h-11z" fill="#ffcebf"/><path d="M121 225.7a7.7 7.7 0 01-7.8-7.7v-13a7.7 7.7 0 1115.4 0v13c0 4.2-3.4 7.7-7.7 7.7zM180.2 225.7a7.7 7.7 0 01-7.7-7.7v-13a7.7 7.7 0 1115.4 0v13c0 4.2-3.5 7.7-7.7 7.7z" fill="#596c76"/><g><path d="M150.7 272c-6.2 0-12-2.7-16.1-7.4a7.7 7.7 0 1111.6-10 6 6 0 009 0 7.7 7.7 0 0111.2 10.6c-4 4.3-9.8 6.8-15.7 6.8z" fill="#596c76"/></g><path d="M285.2 481H16V299.6c0-3 2.4-5.5 5.5-5.5h258.2c3 0 5.5 2.4 5.5 5.5v181.2z" fill="#9facba"/><path d="M285.2 299.8v173.5h-20.6V299.8c0-3-2.5-5.6-5.6-5.6h20.5c3.1 0 5.7 2.5 5.7 5.6z" fill="#8d9ca8"/><circle cx="144.9" cy="383.7" fill="#f5f8f9" r="23.1"/><path d="M168 383.7a23.1 23.1 0 01-45.3 6.7 23.1 23.1 0 0027.3-29.2 23.1 23.1 0 0118 22.5z" fill="#e8edf2"/><g><path d="M439.8 78H337.2a7.5 7.5 0 110-15h102.6a7.5 7.5 0 110 15zM439.8 110.5H337.2a7.5 7.5 0 110-15h102.6a7.5 7.5 0 110 15zM398.8 143h-61.6a7.5 7.5 0 110-15h61.6a7.5 7.5 0 110 15z" fill="#80d261"/></g><path d="M506.5 511H5.5c-3 0-5.5-2.4-5.5-5.4v-26.8c0-3 2.5-5.5 5.5-5.5h501c3 0 5.5 2.5 5.5 5.5v26.8c0 3-2.5 5.5-5.5 5.5z" fill="#d77f4a"/><path d="M512 479v26.4c0 3.1-2.5 5.7-5.6 5.7h-20.6c3.1 0 5.7-2.6 5.7-5.7V479c0-3-2.6-5.6-5.7-5.6h20.6c3 0 5.6 2.5 5.6 5.6z" fill="#c86d36"/></svg>