<svg xmlns="http://www.w3.org/2000/svg" viewBox="0 0 512 512"><linearGradient id="a" gradientUnits="userSpaceOnUse" x1="260.9" y1="341.9" x2="260.9" y2="295.3" gradientTransform="matrix(1.7141 1.7225 .575 -.5722 -375 -11)"><stop offset="0" stop-color="#e2edf2"/><stop offset="1" stop-color="#9fc7e2"/></linearGradient><path d="M454 502L11 57a33 33 0 1147-47l443 445a33 33 0 11-47 47z" fill="url(#a)"/><linearGradient id="b" gradientUnits="userSpaceOnUse" x1="248.8" y1="277.5" x2="188.8" y2="337.6" gradientTransform="matrix(.7074 .7108 .575 -.5722 -167 198)"><stop offset="0" stop-color="#e2edf2" stop-opacity="0"/><stop offset="1" stop-color="#9fc7e2"/></linearGradient><path fill="url(#b)" d="M194 147l-16-16-46 47 73 74z"/><linearGradient id="c" gradientUnits="userSpaceOnUse" x1="33.3" y1="482.1" x2="75.4" y2="439.8" gradientTransform="matrix(1.0028 0 0 -1.0028 0 516)"><stop offset="0" stop-color="#654e48"/><stop offset="1" stop-color="#503837"/></linearGradient><path d="M41 109L12 80c-7-7-7-19 0-26l43-43c7-7 19-7 26 0l29 29-69 69z" fill="url(#c)"/><linearGradient id="d" gradientUnits="userSpaceOnUse" x1="46.8" y1="453.5" x2="19" y2="425.7" gradientTransform="matrix(1.0028 0 0 -1.0028 0 516)"><stop offset="0" stop-color="#3e2e28" stop-opacity="0"/><stop offset="1" stop-color="#503837"/></linearGradient><path d="M36 30L12 54c-7 7-7 19 0 26l29 29 37-36-42-43z" fill="url(#d)"/><linearGradient id="e" gradientUnits="userSpaceOnUse" x1="66" y1="449.2" x2="118.8" y2="396.1" gradientTransform="matrix(1.0028 0 0 -1.0028 0 516)"><stop offset="0" stop-color="#654e48"/><stop offset="1" stop-color="#503837"/></linearGradient><path d="M30 178L7 155c-9-9-8-22 0-30L126 6c8-8 22-8 30 0l23 23c8 9 8 22 0 30L60 178c-9 8-22 8-30 0z" fill="url(#e)"/><linearGradient id="f" gradientUnits="userSpaceOnUse" x1="69.9" y1="400.3" x2="29.9" y2="360.4" gradientTransform="matrix(1.0028 0 0 -1.0028 0 516)"><stop offset="0" stop-color="#3e2e28" stop-opacity="0"/><stop offset="1" stop-color="#503837"/></linearGradient><path d="M69 63L7 125c-8 8-9 21 0 30l23 23c8 8 21 8 30 0l61-62-52-53z" fill="url(#f)"/><linearGradient id="g" gradientUnits="userSpaceOnUse" x1="100" y1="415" x2="170.1" y2="344.6" gradientTransform="matrix(1.0028 0 0 -1.0028 0 516)"><stop offset="0" stop-color="#654e48"/><stop offset="1" stop-color="#503837"/></linearGradient><path d="M52 249l-31-31a28 28 0 010-40L179 21c12-11 29-11 40 0l31 31c11 11 11 29 0 40L92 249a28 28 0 01-40 0z" fill="url(#g)"/><linearGradient id="h" gradientUnits="userSpaceOnUse" x1="64" y1="309.1" x2="46" y2="291.2" gradientTransform="matrix(1.0028 0 0 -1.0028 0 516)"><stop offset="0" stop-color="#3e2e28" stop-opacity="0"/><stop offset="1" stop-color="#503837"/></linearGradient><path d="M103 98l-82 80a28 28 0 000 40l31 31c11 11 29 11 40 0l81-81-70-70z" fill="url(#h)"/><linearGradient id="i" gradientUnits="userSpaceOnUse" x1="372.7" y1="413.6" x2="207.6" y2="471.8" gradientTransform="matrix(.7074 .7108 .575 -.5722 -167 198)"><stop offset="0" stop-color="#e2edf2" stop-opacity="0"/><stop offset="1" stop-color="#9fc7e2"/></linearGradient><path d="M438 486l16 16c13 13 34 13 47 0v-47l-16-16-47 47z" fill="url(#i)"/><linearGradient id="j" gradientUnits="userSpaceOnUse" x1="465.1" y1="48.1" x2="496.4" y2="16.7" gradientTransform="matrix(1.0028 0 0 -1.0028 0 516)"><stop offset="0" stop-color="#654e48"/><stop offset="1" stop-color="#503837"/></linearGradient><path d="M402 472l29 29c7 7 19 7 26 0l43-43c7-7 7-19 0-26l-29-29-69 69z" fill="url(#j)"/><linearGradient id="k" gradientUnits="userSpaceOnUse" x1="448.5" y1="49.8" x2="420.6" y2="22.1" gradientTransform="matrix(1.0028 0 0 -1.0028 0 516)"><stop offset="0" stop-color="#3e2e28" stop-opacity="0"/><stop offset="1" stop-color="#503837"/></linearGradient><path d="M481 477l-24 24c-7 7-19 7-26 0l-29-29 36-37 43 42z" fill="url(#k)"/><linearGradient id="l" gradientUnits="userSpaceOnUse" x1="439.4" y1="18.6" x2="439.7" y2="138.8" gradientTransform="matrix(1.0028 0 0 -1.0028 0 516)"><stop offset="0" stop-color="#3e2e28" stop-opacity="0"/><stop offset="1" stop-color="#503837"/></linearGradient><path d="M457 501l23-23v-66l-9-9-69 69 29 29c7 7 19 7 26 0z" fill="url(#l)"/><linearGradient id="m" gradientUnits="userSpaceOnUse" x1="391.5" y1="122.1" x2="444.3" y2="69.1" gradientTransform="matrix(1.0028 0 0 -1.0028 0 516)"><stop offset="0" stop-color="#654e48"/><stop offset="1" stop-color="#503837"/></linearGradient><path d="M505 357l-23-23c-8-8-21-8-30 0L333 453c-8 8-8 21 0 30l23 23c8 8 22 8 30 0l119-119c8-8 9-21 0-30z" fill="url(#m)"/><linearGradient id="n" gradientUnits="userSpaceOnUse" x1="395.4" y1="73.2" x2="355.3" y2="33.3" gradientTransform="matrix(1.0028 0 0 -1.0028 0 516)"><stop offset="0" stop-color="#3e2e28" stop-opacity="0"/><stop offset="1" stop-color="#503837"/></linearGradient><path d="M448 444l-62 62c-8 8-22 8-30 0l-23-23c-8-9-8-22 0-30l62-62 53 53z" fill="url(#n)"/><linearGradient id="o" gradientUnits="userSpaceOnUse" x1="405.2" y1="89.2" x2="405.5" y2="200.3" gradientTransform="matrix(1.0028 0 0 -1.0028 0 516)"><stop offset="0" stop-color="#3e2e28" stop-opacity="0"/><stop offset="1" stop-color="#503837"/></linearGradient><path d="M486 338l-4-4c-8-8-21-8-30 0L333 453c-8 8-8 21 0 30l23 23c8 8 22 8 30 0l100-100v-68z" fill="url(#o)"/><linearGradient id="p" gradientUnits="userSpaceOnUse" x1="340.2" y1="173.6" x2="410.3" y2="103.2" gradientTransform="matrix(1.0028 0 0 -1.0028 0 516)"><stop offset="0" stop-color="#654e48"/><stop offset="1" stop-color="#503837"/></linearGradient><path d="M491 294l-31-31a28 28 0 00-40 0L262 420a28 28 0 000 40l31 31c11 11 28 11 40 0l158-157c11-11 11-29 0-40z" fill="url(#p)"/><linearGradient id="q" gradientUnits="userSpaceOnUse" x1="304.2" y1="67.7" x2="286.2" y2="49.8" gradientTransform="matrix(1.0028 0 0 -1.0028 0 516)"><stop offset="0" stop-color="#3e2e28" stop-opacity="0"/><stop offset="1" stop-color="#503837"/></linearGradient><path d="M414 410l-81 81a28 28 0 01-40 0l-31-31a28 28 0 010-40l81-80 71 70z" fill="url(#q)"/></svg>